<mxfile host="app.diagrams.net" modified="2024-06-05T03:25:58.155Z" agent="Mozilla/5.0 (Windows NT 10.0; Win64; x64) AppleWebKit/537.36 (KHTML, like Gecko) Chrome/125.0.0.0 Safari/537.36 Edg/125.0.0.0" etag="Bsm1N2DewzM3SuPnI7az" version="24.4.0" type="github">
  <diagram name="Anti-corruption Layer" id="uQXlJGhHl3HdLkSkD5kK">
    <mxGraphModel dx="1505" dy="785" grid="1" gridSize="10" guides="1" tooltips="1" connect="1" arrows="1" fold="1" page="1" pageScale="1" pageWidth="827" pageHeight="1169" math="0" shadow="0">
      <root>
        <mxCell id="0" />
        <mxCell id="1" parent="0" />
        <mxCell id="C_LeCWQYH5etMFsB-Erh-17" value="" style="group" vertex="1" connectable="0" parent="1">
          <mxGeometry x="29" y="20" width="260" height="520" as="geometry" />
        </mxCell>
        <mxCell id="C_LeCWQYH5etMFsB-Erh-14" value="" style="rounded=1;whiteSpace=wrap;html=1;" vertex="1" parent="C_LeCWQYH5etMFsB-Erh-17">
          <mxGeometry width="260" height="520" as="geometry" />
        </mxCell>
        <mxCell id="C_LeCWQYH5etMFsB-Erh-8" value="Analysis Models" style="html=1;dropTarget=0;whiteSpace=wrap;fillColor=#f5f5f5;fontColor=#333333;strokeColor=#666666;" vertex="1" parent="C_LeCWQYH5etMFsB-Erh-17">
          <mxGeometry x="31" y="177" width="180" height="90" as="geometry" />
        </mxCell>
        <mxCell id="C_LeCWQYH5etMFsB-Erh-9" value="" style="shape=module;jettyWidth=8;jettyHeight=4;" vertex="1" parent="C_LeCWQYH5etMFsB-Erh-8">
          <mxGeometry x="1" width="20" height="20" relative="1" as="geometry">
            <mxPoint x="-27" y="7" as="offset" />
          </mxGeometry>
        </mxCell>
        <mxCell id="C_LeCWQYH5etMFsB-Erh-10" value="Analysis Modules" style="html=1;dropTarget=0;whiteSpace=wrap;fillColor=#f5f5f5;fontColor=#333333;strokeColor=#666666;" vertex="1" parent="C_LeCWQYH5etMFsB-Erh-17">
          <mxGeometry x="31" y="317" width="180" height="90" as="geometry" />
        </mxCell>
        <mxCell id="C_LeCWQYH5etMFsB-Erh-11" value="" style="shape=module;jettyWidth=8;jettyHeight=4;" vertex="1" parent="C_LeCWQYH5etMFsB-Erh-10">
          <mxGeometry x="1" width="20" height="20" relative="1" as="geometry">
            <mxPoint x="-27" y="7" as="offset" />
          </mxGeometry>
        </mxCell>
        <mxCell id="C_LeCWQYH5etMFsB-Erh-15" value="Ballbar Connect" style="text;html=1;align=center;verticalAlign=middle;whiteSpace=wrap;rounded=0;fontStyle=1" vertex="1" parent="C_LeCWQYH5etMFsB-Erh-17">
          <mxGeometry x="74" y="470" width="107" height="30" as="geometry" />
        </mxCell>
        <mxCell id="C_LeCWQYH5etMFsB-Erh-18" value="" style="group" vertex="1" connectable="0" parent="1">
          <mxGeometry x="860" y="10" width="250" height="520" as="geometry" />
        </mxCell>
        <mxCell id="C_LeCWQYH5etMFsB-Erh-12" value="" style="rounded=1;whiteSpace=wrap;html=1;" vertex="1" parent="C_LeCWQYH5etMFsB-Erh-18">
          <mxGeometry width="250" height="520" as="geometry" />
        </mxCell>
        <mxCell id="C_LeCWQYH5etMFsB-Erh-1" value="Mongo DB" style="shape=cylinder3;whiteSpace=wrap;html=1;boundedLbl=1;backgroundOutline=1;size=15;fillColor=#f5f5f5;fontColor=#333333;strokeColor=#666666;" vertex="1" parent="C_LeCWQYH5etMFsB-Erh-18">
          <mxGeometry x="85" y="10" width="90" height="100" as="geometry" />
        </mxCell>
        <mxCell id="C_LeCWQYH5etMFsB-Erh-7" style="edgeStyle=orthogonalEdgeStyle;rounded=0;orthogonalLoop=1;jettySize=auto;html=1;" edge="1" parent="C_LeCWQYH5etMFsB-Erh-18" source="C_LeCWQYH5etMFsB-Erh-2" target="C_LeCWQYH5etMFsB-Erh-4">
          <mxGeometry relative="1" as="geometry" />
        </mxCell>
        <mxCell id="C_LeCWQYH5etMFsB-Erh-2" value="Data Access Layer" style="html=1;dropTarget=0;whiteSpace=wrap;fillColor=#f5f5f5;fontColor=#333333;strokeColor=#666666;" vertex="1" parent="C_LeCWQYH5etMFsB-Erh-18">
          <mxGeometry x="40" y="330" width="180" height="90" as="geometry" />
        </mxCell>
        <mxCell id="C_LeCWQYH5etMFsB-Erh-3" value="" style="shape=module;jettyWidth=8;jettyHeight=4;" vertex="1" parent="C_LeCWQYH5etMFsB-Erh-2">
          <mxGeometry x="1" width="20" height="20" relative="1" as="geometry">
            <mxPoint x="-27" y="7" as="offset" />
          </mxGeometry>
        </mxCell>
        <mxCell id="C_LeCWQYH5etMFsB-Erh-4" value="DAL Model" style="html=1;dropTarget=0;whiteSpace=wrap;fillColor=#f5f5f5;fontColor=#333333;strokeColor=#666666;" vertex="1" parent="C_LeCWQYH5etMFsB-Erh-18">
          <mxGeometry x="40" y="170" width="180" height="90" as="geometry" />
        </mxCell>
        <mxCell id="C_LeCWQYH5etMFsB-Erh-5" value="" style="shape=module;jettyWidth=8;jettyHeight=4;" vertex="1" parent="C_LeCWQYH5etMFsB-Erh-4">
          <mxGeometry x="1" width="20" height="20" relative="1" as="geometry">
            <mxPoint x="-27" y="7" as="offset" />
          </mxGeometry>
        </mxCell>
        <mxCell id="C_LeCWQYH5etMFsB-Erh-6" style="edgeStyle=orthogonalEdgeStyle;rounded=0;orthogonalLoop=1;jettySize=auto;html=1;entryX=0.5;entryY=1;entryDx=0;entryDy=0;entryPerimeter=0;" edge="1" parent="C_LeCWQYH5etMFsB-Erh-18" source="C_LeCWQYH5etMFsB-Erh-4" target="C_LeCWQYH5etMFsB-Erh-1">
          <mxGeometry relative="1" as="geometry" />
        </mxCell>
        <mxCell id="C_LeCWQYH5etMFsB-Erh-13" value="CARTO&amp;nbsp;" style="text;html=1;align=center;verticalAlign=middle;whiteSpace=wrap;rounded=0;fontStyle=1" vertex="1" parent="C_LeCWQYH5etMFsB-Erh-18">
          <mxGeometry x="100" y="480" width="60" height="30" as="geometry" />
        </mxCell>
        <mxCell id="C_LeCWQYH5etMFsB-Erh-21" value="" style="group" vertex="1" connectable="0" parent="1">
          <mxGeometry x="414" y="160" width="300" height="320" as="geometry" />
        </mxCell>
        <mxCell id="C_LeCWQYH5etMFsB-Erh-16" value="" style="verticalLabelPosition=bottom;verticalAlign=top;html=1;shape=mxgraph.basic.8_point_star;fillColor=#e1d5e7;strokeColor=#9673a6;" vertex="1" parent="C_LeCWQYH5etMFsB-Erh-21">
          <mxGeometry width="300" height="210" as="geometry" />
        </mxCell>
        <mxCell id="C_LeCWQYH5etMFsB-Erh-20" value="Anti-corruption layer" style="text;html=1;align=center;verticalAlign=middle;whiteSpace=wrap;rounded=0;fontSize=18;" vertex="1" parent="C_LeCWQYH5etMFsB-Erh-21">
          <mxGeometry x="90" y="80" width="140" height="50" as="geometry" />
        </mxCell>
        <mxCell id="C_LeCWQYH5etMFsB-Erh-26" value="Document Adapaters" style="rounded=0;whiteSpace=wrap;html=1;fillColor=#f5f5f5;fontColor=#333333;strokeColor=#666666;" vertex="1" parent="C_LeCWQYH5etMFsB-Erh-21">
          <mxGeometry x="60" y="240" width="200" height="60" as="geometry" />
        </mxCell>
        <mxCell id="C_LeCWQYH5etMFsB-Erh-22" value="" style="shape=flexArrow;endArrow=classic;startArrow=classic;html=1;rounded=0;startWidth=71.66666666666667;startSize=17.4;width=56.66666666666667;endWidth=71.66666666666667;endSize=17.4;fillColor=#f5f5f5;strokeColor=#666666;" edge="1" parent="1">
          <mxGeometry width="100" height="100" relative="1" as="geometry">
            <mxPoint x="710" y="269" as="sourcePoint" />
            <mxPoint x="860" y="263.54545454545473" as="targetPoint" />
          </mxGeometry>
        </mxCell>
        <mxCell id="C_LeCWQYH5etMFsB-Erh-23" value="" style="shape=flexArrow;endArrow=classic;startArrow=classic;html=1;rounded=0;startWidth=71.66666666666667;startSize=17.4;width=56.66666666666667;endWidth=71.66666666666667;endSize=17.4;fillColor=#f5f5f5;strokeColor=#666666;" edge="1" parent="1">
          <mxGeometry width="100" height="100" relative="1" as="geometry">
            <mxPoint x="289" y="265" as="sourcePoint" />
            <mxPoint x="439" y="260" as="targetPoint" />
          </mxGeometry>
        </mxCell>
      </root>
    </mxGraphModel>
  </diagram>
</mxfile>
